<mxfile host="Electron" modified="2024-07-19T21:49:57.972Z" agent="Mozilla/5.0 (X11; Linux x86_64) AppleWebKit/537.36 (KHTML, like Gecko) draw.io/24.6.4 Chrome/124.0.6367.207 Electron/30.0.6 Safari/537.36" etag="D-ypclUA6BsCmbwfkmra" version="24.6.4" type="device">
  <diagram name="Página-1" id="ADYYKMX-A4zYiwVikc3c">
    <mxGraphModel dx="1376" dy="810" grid="1" gridSize="10" guides="1" tooltips="1" connect="1" arrows="1" fold="1" page="1" pageScale="1" pageWidth="827" pageHeight="1169" math="0" shadow="0">
      <root>
        <mxCell id="0" />
        <mxCell id="1" parent="0" />
        <mxCell id="4cM3BV6VaOR8g3-CvRQW-1" value="Usuario" style="shape=umlActor;verticalLabelPosition=bottom;verticalAlign=top;html=1;outlineConnect=0;" vertex="1" parent="1">
          <mxGeometry x="140" y="460" width="110" height="200" as="geometry" />
        </mxCell>
        <mxCell id="4cM3BV6VaOR8g3-CvRQW-4" value="" style="whiteSpace=wrap;html=1;" vertex="1" parent="1">
          <mxGeometry x="320" y="260" width="440" height="620" as="geometry" />
        </mxCell>
        <mxCell id="4cM3BV6VaOR8g3-CvRQW-5" value="Juanito shoes Aplicación" style="text;html=1;align=center;verticalAlign=middle;resizable=0;points=[];autosize=1;strokeColor=none;fillColor=none;" vertex="1" parent="1">
          <mxGeometry x="465" y="300" width="150" height="30" as="geometry" />
        </mxCell>
        <mxCell id="4cM3BV6VaOR8g3-CvRQW-7" value="Registrase" style="ellipse;whiteSpace=wrap;html=1;" vertex="1" parent="1">
          <mxGeometry x="354" y="360" width="120" height="80" as="geometry" />
        </mxCell>
        <mxCell id="4cM3BV6VaOR8g3-CvRQW-8" value="Iniciar sesión" style="ellipse;whiteSpace=wrap;html=1;" vertex="1" parent="1">
          <mxGeometry x="550" y="360" width="120" height="80" as="geometry" />
        </mxCell>
        <mxCell id="4cM3BV6VaOR8g3-CvRQW-9" value="Navegar productos" style="ellipse;whiteSpace=wrap;html=1;" vertex="1" parent="1">
          <mxGeometry x="465" y="470" width="120" height="80" as="geometry" />
        </mxCell>
        <mxCell id="4cM3BV6VaOR8g3-CvRQW-10" value="Gestionar perfil" style="ellipse;whiteSpace=wrap;html=1;" vertex="1" parent="1">
          <mxGeometry x="345" y="550" width="120" height="80" as="geometry" />
        </mxCell>
        <mxCell id="4cM3BV6VaOR8g3-CvRQW-11" value="Realizar pedidos" style="ellipse;whiteSpace=wrap;html=1;" vertex="1" parent="1">
          <mxGeometry x="570" y="620" width="120" height="80" as="geometry" />
        </mxCell>
        <mxCell id="4cM3BV6VaOR8g3-CvRQW-12" value="Consultar historial de pedidos" style="ellipse;whiteSpace=wrap;html=1;" vertex="1" parent="1">
          <mxGeometry x="430" y="690" width="120" height="80" as="geometry" />
        </mxCell>
        <mxCell id="4cM3BV6VaOR8g3-CvRQW-14" value="" style="endArrow=none;html=1;rounded=0;" edge="1" parent="1" target="4cM3BV6VaOR8g3-CvRQW-7">
          <mxGeometry width="50" height="50" relative="1" as="geometry">
            <mxPoint x="230" y="500" as="sourcePoint" />
            <mxPoint x="280" y="450" as="targetPoint" />
          </mxGeometry>
        </mxCell>
        <mxCell id="4cM3BV6VaOR8g3-CvRQW-15" value="" style="endArrow=none;html=1;rounded=0;" edge="1" parent="1" target="4cM3BV6VaOR8g3-CvRQW-8">
          <mxGeometry width="50" height="50" relative="1" as="geometry">
            <mxPoint x="208" y="550" as="sourcePoint" />
            <mxPoint x="345" y="475" as="targetPoint" />
          </mxGeometry>
        </mxCell>
        <mxCell id="4cM3BV6VaOR8g3-CvRQW-16" value="" style="endArrow=none;html=1;rounded=0;" edge="1" parent="1">
          <mxGeometry width="50" height="50" relative="1" as="geometry">
            <mxPoint x="214.34" y="571.24" as="sourcePoint" />
            <mxPoint x="465.00346796967943" y="510.0029964243456" as="targetPoint" />
          </mxGeometry>
        </mxCell>
        <mxCell id="4cM3BV6VaOR8g3-CvRQW-17" value="" style="endArrow=none;html=1;rounded=0;entryX=0;entryY=0.5;entryDx=0;entryDy=0;" edge="1" parent="1" target="4cM3BV6VaOR8g3-CvRQW-10">
          <mxGeometry width="50" height="50" relative="1" as="geometry">
            <mxPoint x="214.34" y="591.24" as="sourcePoint" />
            <mxPoint x="465.00346796967943" y="530.0029964243456" as="targetPoint" />
          </mxGeometry>
        </mxCell>
        <mxCell id="4cM3BV6VaOR8g3-CvRQW-18" value="" style="endArrow=none;html=1;rounded=0;" edge="1" parent="1" target="4cM3BV6VaOR8g3-CvRQW-11">
          <mxGeometry width="50" height="50" relative="1" as="geometry">
            <mxPoint x="223.34" y="621.24" as="sourcePoint" />
            <mxPoint x="354" y="620" as="targetPoint" />
          </mxGeometry>
        </mxCell>
        <mxCell id="4cM3BV6VaOR8g3-CvRQW-19" value="" style="endArrow=none;html=1;rounded=0;" edge="1" parent="1" target="4cM3BV6VaOR8g3-CvRQW-12">
          <mxGeometry width="50" height="50" relative="1" as="geometry">
            <mxPoint x="231.17000000000002" y="643.62" as="sourcePoint" />
            <mxPoint x="578.83" y="676.38" as="targetPoint" />
          </mxGeometry>
        </mxCell>
      </root>
    </mxGraphModel>
  </diagram>
</mxfile>
